<svg width="224" height="35" viewBox="0 0 224 35" fill="none" xmlns="http://www.w3.org/2000/svg">
<path d="M14.75 33.9761H0.134033V33.5134H0.735323C1.8454 33.5134 2.69337 33.0353 3.27924 32.0792C3.52593 31.6474 3.66469 31.1693 3.69552 30.645V4.92161C3.66469 4.11968 3.35633 3.44112 2.77046 2.88594C2.21542 2.33076 1.53704 2.05317 0.735323 2.05317H0.134033V1.59052H13.5474C17.1243 1.59052 19.9612 2.23823 22.058 3.53365C24.1856 4.82907 25.2649 6.81847 25.2957 9.50185C25.2649 10.859 24.972 12.0464 24.4169 13.0643C23.3993 14.9765 21.7959 16.0715 19.6066 16.3491C21.9809 16.565 23.939 17.4594 25.4807 19.0324C27.0225 20.5746 27.7934 22.5486 27.7934 24.9544C27.7934 27.8537 26.6216 30.0898 24.2782 31.6628C21.9655 33.205 18.7895 33.9761 14.75 33.9761ZM17.8952 10.1033C17.8644 5.75438 15.8909 3.57992 11.9748 3.57992H10.6335V31.8479H12.7611C12.792 31.8479 12.8228 31.8479 12.8536 31.8479C14.9813 31.8479 16.6772 31.231 17.9415 29.9973C19.2057 28.7635 19.8379 26.8821 19.8379 24.3529C19.8379 21.8238 19.1286 19.9423 17.7102 18.7086C16.2918 17.4749 14.4571 16.858 12.2061 16.858V16.4416C13.8095 16.4416 15.1509 15.9327 16.2301 14.9149C17.3094 13.8662 17.8644 12.2623 17.8952 10.1033Z" fill="#00CDA8"/>
<path d="M43.8859 3.62618H41.897C41.8353 3.62618 41.7891 3.62618 41.7582 3.62618V30.5987C41.7891 31.4006 42.082 32.0946 42.637 32.6806C43.2229 33.2358 43.9167 33.5134 44.7184 33.5134H45.3197V33.9761H31.2588V33.5134H31.8601C32.9701 33.5134 33.8181 33.0353 34.404 32.0792C34.6507 31.6474 34.7894 31.1693 34.8202 30.645V4.96787C34.7894 4.16594 34.4811 3.48739 33.8952 2.93221C33.3401 2.34618 32.6618 2.05317 31.8601 2.05317H31.2588V1.59052H47.1236C50.1146 1.59052 52.6431 2.23823 54.7091 3.53365C55.7575 4.18137 56.59 5.09124 57.2068 6.26329C57.8235 7.4045 58.1318 8.91582 58.1318 10.7973C58.1318 12.6479 57.4843 14.4368 56.1892 16.164C54.8941 17.8912 53.0131 18.8782 50.5463 19.125C52.3348 19.711 53.9074 21.0681 55.2641 23.1963C58.5943 28.5322 61.0612 31.7091 62.6646 32.7269C63.4663 33.2204 64.4685 33.4826 65.6711 33.5134V33.9761H61.1383C58.4556 33.9761 56.22 33.6214 54.4316 32.912C52.674 32.2026 51.2864 30.9534 50.2688 29.1645C49.6829 28.1467 48.4032 25.5096 46.4298 21.2532C45.5664 19.3717 44.518 18.3385 43.2846 18.1534V17.6908H44.7184C46.106 17.6908 47.324 17.2744 48.3724 16.4416C49.4516 15.6088 50.1763 14.2517 50.5463 12.3703C50.6697 11.7226 50.7313 11.2137 50.7313 10.8435C50.7313 8.31438 50.2225 6.49462 49.205 5.38426C48.1874 4.24305 46.8769 3.65703 45.2735 3.62618C44.9651 3.62618 44.5026 3.62618 43.8859 3.62618Z" fill="#00CDA8"/>
<path d="M65.7336 33.5134C66.5353 33.5134 67.2137 33.2358 67.7687 32.6806C68.3546 32.0946 68.6629 31.4006 68.6938 30.5987V4.92161C68.6629 4.11968 68.3546 3.44112 67.7687 2.88594C67.2137 2.33076 66.5353 2.05317 65.7336 2.05317H65.1323V1.59052H79.1932L79.147 2.05317H78.5919C77.7902 2.05317 77.0964 2.33076 76.5106 2.88594C75.9247 3.44112 75.6318 4.11968 75.6318 4.92161V30.5987C75.6318 31.4006 75.9247 32.0946 76.5106 32.6806C77.0964 33.2358 77.7902 33.5134 78.5919 33.5134H79.147L79.1932 33.9761H65.1323V33.5134H65.7336Z" fill="#00CDA8"/>
<path d="M113.779 34.5775C107.827 34.5775 103.156 33.0816 99.7639 30.0898C96.3721 27.098 94.6761 22.9958 94.6761 17.7833C94.6761 12.5708 96.3566 8.46859 99.7177 5.47679C103.079 2.45414 107.689 0.94281 113.547 0.94281C118.019 0.94281 121.858 1.77558 125.064 3.44112L125.157 11.3987H124.787C123.214 5.72353 119.622 2.88594 114.01 2.88594C110.371 2.88594 107.488 4.21221 105.361 6.86474C103.264 9.48643 102.215 13.0797 102.215 17.6445C102.215 22.2093 103.218 25.8334 105.222 28.5168C107.257 31.2002 110.001 32.5881 113.455 32.6806C117.032 32.6806 119.761 31.7862 121.642 29.9973C123.553 28.1467 124.879 24.9698 125.619 20.4667H125.989L126.452 28.4243C123.954 32.5573 119.73 34.6084 113.779 34.5775Z" fill="#00CDA8"/>
<path d="M131.093 33.5134C131.895 33.5134 132.573 33.2358 133.128 32.6806C133.714 32.0946 134.023 31.4006 134.053 30.5987V4.96787C134.023 4.16594 133.714 3.48739 133.128 2.93221C132.573 2.34618 131.895 2.05317 131.093 2.05317H130.492V1.59052H144.553L144.507 2.05317H143.952C143.15 2.05317 142.456 2.34618 141.87 2.93221C141.284 3.48739 140.991 4.16594 140.991 4.96787V31.9867H147.051C149.301 31.9867 151.182 31.339 152.693 30.0435C154.235 28.7481 155.376 26.9129 156.116 24.538H156.579L154.451 33.9761H130.492V33.5134H131.093Z" fill="#00CDA8"/>
<path d="M193.32 2.05317H192.534C191.886 2.05317 191.331 2.26907 190.868 2.70088C190.406 3.10185 190.159 3.61076 190.128 4.22763V22.271C190.128 26.0647 188.941 29.072 186.567 31.2927C184.193 33.5134 180.939 34.6238 176.808 34.6238C171.936 34.6238 168.204 33.5443 165.614 31.3852C163.024 29.1953 161.729 26.1727 161.729 22.3173V4.36642C161.698 3.44112 161.282 2.76257 160.48 2.33076C160.11 2.1457 159.709 2.05317 159.278 2.05317H158.538V1.59052H171.858V2.05317H171.118C170.44 2.05317 169.87 2.26907 169.407 2.70088C168.944 3.10185 168.698 3.62618 168.667 4.2739V21.9471C168.667 25.2165 169.469 27.8074 171.072 29.7197C172.676 31.632 174.88 32.5881 177.686 32.5881C180.492 32.5881 182.712 31.6937 184.347 29.9047C185.981 28.085 186.814 25.6329 186.844 22.5486V4.2739C186.783 3.37944 186.367 2.73173 185.596 2.33076C185.226 2.1457 184.825 2.05317 184.393 2.05317H183.653V1.59052H193.32V2.05317Z" fill="#00CDA8"/>
<path d="M210.693 33.9761H196.077V33.5134H196.679C197.789 33.5134 198.637 33.0353 199.223 32.0792C199.469 31.6474 199.608 31.1693 199.639 30.645V4.92161C199.608 4.11968 199.3 3.44112 198.714 2.88594C198.159 2.33076 197.48 2.05317 196.679 2.05317H196.077V1.59052H209.491C213.068 1.59052 215.905 2.23823 218.001 3.53365C220.129 4.82907 221.208 6.81847 221.239 9.50185C221.208 10.859 220.915 12.0464 220.36 13.0643C219.343 14.9765 217.739 16.0715 215.55 16.3491C217.924 16.565 219.882 17.4594 221.424 19.0324C222.966 20.5746 223.737 22.5486 223.737 24.9544C223.737 27.8537 222.565 30.0898 220.221 31.6628C217.909 33.205 214.733 33.9761 210.693 33.9761ZM213.839 10.1033C213.808 5.75438 211.834 3.57992 207.918 3.57992H206.577V31.8479H208.704C208.735 31.8479 208.766 31.8479 208.797 31.8479C210.925 31.8479 212.621 31.231 213.885 29.9973C215.149 28.7635 215.781 26.8821 215.781 24.3529C215.781 21.8238 215.072 19.9423 213.654 18.7086C212.235 17.4749 210.4 16.858 208.149 16.858V16.4416C209.753 16.4416 211.094 15.9327 212.173 14.9149C213.253 13.8662 213.808 12.2623 213.839 10.1033Z" fill="#00CDA8"/>
</svg>
