<svg width="224" height="200" viewBox="0 0 224 200" fill="none" xmlns="http://www.w3.org/2000/svg">
<path fill-rule="evenodd" clip-rule="evenodd" d="M59.4047 67.5967L70.5904 78.7782C71.7197 79.907 73.0653 80.6882 74.4944 81.122L74.2913 81.325C68.991 86.6234 66.2573 93.4898 66.1164 100.323C63.6982 99.3631 61.4415 97.9124 59.4966 95.9681C51.8146 88.2891 51.8344 75.75 59.4047 67.5967ZM54.999 63.132C45.4107 52.436 45.4991 36.2558 55.4559 26.3028C58.8735 22.8865 63.0251 20.6324 67.4368 19.5327C68.5368 15.1227 70.7918 10.9727 74.2094 7.55642C84.5263 -2.75656 101.532 -2.47846 112.192 8.17758L112.218 8.20378C122.904 -1.9454 139.525 -2.04905 149.673 8.09574C153.091 11.5121 155.346 15.662 156.446 20.0721C160.858 21.1717 165.009 23.4258 168.427 26.8421C178.567 36.9784 178.472 53.5732 168.344 64.2566C177.933 74.9527 177.844 91.1328 167.887 101.086C164.47 104.502 160.318 106.756 155.907 107.856C154.807 112.266 152.552 116.416 149.134 119.832C138.817 130.145 121.812 129.867 111.152 119.211L111.126 119.185C100.439 129.334 83.8186 129.438 73.6699 119.293C70.2523 115.877 67.9974 111.727 66.8973 107.316C62.4856 106.217 58.3341 103.963 54.9165 100.546C44.7764 90.4102 44.8714 73.8154 54.999 63.132ZM59.4343 58.6837C52.377 50.5256 52.5305 38.3837 60.036 30.8811C61.981 28.9369 64.2376 27.4862 66.6558 26.5265C66.7966 33.3533 69.5255 40.2134 74.8163 45.5097C73.0695 45.8641 71.4048 46.7178 70.051 48.0711L59.4343 58.6837ZM63.8507 63.155L74.4957 52.5141C75.7203 51.2899 77.708 51.2922 78.9354 52.5191L90.1148 63.6942L79.4748 74.3302C78.2475 75.5571 76.2597 75.5593 75.0351 74.3352L63.8507 63.155ZM94.5496 68.1273L85.5198 77.1537C88.4068 77.4402 91.1904 78.6703 93.3729 80.852C96.1155 83.5936 97.3549 87.2838 97.107 90.936L107.237 80.8099L94.5496 68.1273ZM98.9843 63.6942L111.672 51.0117L124.359 63.6943L111.672 76.3768L98.9843 63.6942ZM107.237 46.5787L94.5496 59.2612L85.0432 49.7584C88.2869 49.6844 91.4739 48.4348 93.9113 45.9983C96.3771 43.5334 97.6277 40.3018 97.675 37.0204L107.237 46.5787ZM116.106 46.5787L128.794 59.2613L137.824 50.2349C134.937 49.9483 132.153 48.7182 129.97 46.5365C127.228 43.7949 125.989 40.1047 126.236 36.4525L116.106 46.5787ZM129.425 28.5605C129.614 28.3334 129.813 28.1109 130.019 27.8933L130.017 27.8909L130.135 27.7723C130.183 27.7232 130.231 27.6744 130.28 27.6258C130.309 27.5964 130.339 27.5671 130.369 27.538L130.445 27.4632C135.745 22.1649 142.614 19.4322 149.45 19.2914C148.49 16.8741 147.038 14.6183 145.093 12.6741C137.393 4.97662 124.807 5.01499 116.653 12.6368L126.705 22.6852C128.344 24.3234 129.25 26.417 129.425 28.5605ZM112.211 17.0832L122.26 27.1282C123.485 28.3523 123.482 30.3393 122.255 31.5662L111.672 42.1456L101.628 32.1055C100.4 30.8786 100.398 28.8917 101.623 27.6675L112.211 17.0832ZM107.779 12.6281L107.759 12.6085C99.6284 4.48104 86.6583 4.26894 78.7895 12.1348C76.8445 14.079 75.3932 16.3348 74.4332 18.7521C81.2688 18.8929 88.1378 21.6256 93.4381 26.9239L93.8659 27.3516L93.8625 27.355C94.1142 27.6201 94.3535 27.8926 94.5804 28.1716C94.9111 26.3587 95.7769 24.6251 97.1781 23.2245L107.779 12.6281ZM79.3447 41.163L79.3389 41.1687L79.2634 41.0932C74.8429 36.6744 72.7631 30.8256 73.05 25.1438C78.734 24.857 84.585 26.9361 89.0055 31.3549L89.081 31.4303L89.0742 31.4371C89.104 31.466 89.1337 31.4951 89.1631 31.5246C91.9396 34.3 92.0121 38.7275 89.325 41.4136C86.6378 44.0998 82.2087 44.0273 79.4321 41.2519C79.4027 41.2224 79.3735 41.1928 79.3447 41.163ZM116.106 80.8099L128.794 68.1274L138.3 77.6302C135.057 77.7042 131.869 78.9538 129.432 81.3904C126.966 83.8552 125.716 87.0868 125.668 90.3681L116.106 80.8099ZM156.688 100.862C156.547 94.0353 153.818 87.1752 148.527 81.8788C150.274 81.5245 151.939 80.6708 153.292 79.3175L163.909 68.7049C170.966 76.863 170.813 89.0049 163.307 96.5075C161.362 98.4517 159.106 99.9025 156.688 100.862ZM148.848 74.8745L159.493 64.2336L148.308 53.0535C147.084 51.8293 145.096 51.8315 143.868 53.0584L133.229 63.6943L144.408 74.8695C145.635 76.0964 147.623 76.0986 148.848 74.8745ZM163.847 31.4204C171.529 39.0995 171.509 51.6386 163.939 59.7919L152.753 48.6105C151.624 47.4816 150.278 46.7004 148.849 46.2666L149.052 46.0635C154.352 40.7652 157.086 33.8988 157.227 27.0658C159.645 28.0255 161.902 29.4762 163.847 31.4204ZM126.165 104.164C127.566 102.763 128.432 101.03 128.763 99.217C128.99 99.4961 129.229 99.7685 129.481 100.034L129.477 100.037L129.905 100.465C135.206 105.763 142.075 108.496 148.91 108.637C147.95 111.054 146.499 113.31 144.554 115.254C136.685 123.12 123.715 122.908 115.584 114.78L115.565 114.76L126.165 104.164ZM121.721 99.721L111.132 110.305L101.083 100.26C99.8587 99.0363 99.8609 97.0493 101.088 95.8224L111.672 85.243L121.716 95.283C122.943 96.5099 122.945 98.4969 121.721 99.721ZM93.3241 99.4953C93.5307 99.2777 93.7289 99.0552 93.9188 98.8281C94.0933 100.972 94.9998 103.065 96.6386 104.703L106.691 114.752C98.536 122.374 85.9504 122.412 78.25 114.714C76.305 112.77 74.8538 110.514 73.8938 108.097C80.7293 107.956 87.5983 105.224 92.8987 99.9253L92.9748 99.8505C93.0045 99.8214 93.034 99.7921 93.0634 99.7627C93.112 99.7142 93.1602 99.6653 93.2079 99.6162L93.3265 99.4977L93.3241 99.4953ZM134.808 31.9754L134.802 31.9697L134.877 31.8942C139.298 27.4754 145.149 25.3963 150.833 25.6831C151.12 31.365 149.04 37.2138 144.619 41.6326L144.544 41.708L144.537 41.7012L144.486 41.7532L144.45 41.7901C141.673 44.5656 137.244 44.638 134.557 41.9519C131.87 39.2658 131.942 34.8383 134.719 32.0628C134.748 32.0334 134.778 32.0042 134.808 31.9754ZM88.5358 95.4132L88.5415 95.4189L88.466 95.4944C84.0456 99.9132 78.1945 101.992 72.5106 101.705C72.2236 96.0236 74.3035 90.1748 78.724 85.756L78.7995 85.6805L78.8063 85.6873L78.8555 85.6369L78.8937 85.5984C81.6702 82.823 86.0994 82.7505 88.7866 85.4366C91.4737 88.1227 91.4012 92.5502 88.6247 95.3257C88.5953 95.3552 88.5656 95.3843 88.5358 95.4132ZM144.004 86.2199L143.999 86.2257C143.97 86.1958 143.941 86.1662 143.911 86.1367C141.135 83.3613 136.706 83.2888 134.018 85.975C131.331 88.6611 131.404 93.0886 134.18 95.864C134.21 95.8935 134.239 95.9226 134.269 95.9515L134.262 95.9583L134.338 96.0337C138.758 100.453 144.609 102.532 150.293 102.245C150.58 96.563 148.5 90.7142 144.08 86.2954L144.004 86.2199Z" fill="#00CDA8"/>
<path d="M14.75 198.976H0.134033V198.513H0.735323C1.8454 198.513 2.69337 198.035 3.27924 197.079C3.52593 196.647 3.66469 196.169 3.69552 195.645V169.922C3.66469 169.12 3.35633 168.441 2.77046 167.886C2.21542 167.331 1.53704 167.053 0.735323 167.053H0.134033V166.591H13.5474C17.1243 166.591 19.9612 167.238 22.058 168.534C24.1856 169.829 25.2649 171.818 25.2957 174.502C25.2649 175.859 24.972 177.046 24.4169 178.064C23.3993 179.977 21.7959 181.071 19.6066 181.349C21.9809 181.565 23.939 182.459 25.4807 184.032C27.0225 185.575 27.7934 187.549 27.7934 189.954C27.7934 192.854 26.6216 195.09 24.2782 196.663C21.9655 198.205 18.7895 198.976 14.75 198.976ZM17.8952 175.103C17.8644 170.754 15.8909 168.58 11.9748 168.58H10.6335V196.848H12.7611C12.792 196.848 12.8228 196.848 12.8536 196.848C14.9813 196.848 16.6772 196.231 17.9415 194.997C19.2057 193.764 19.8379 191.882 19.8379 189.353C19.8379 186.824 19.1286 184.942 17.7102 183.709C16.2918 182.475 14.4571 181.858 12.2061 181.858V181.442C13.8095 181.442 15.1509 180.933 16.2301 179.915C17.3094 178.866 17.8644 177.262 17.8952 175.103Z" fill="#00CDA8"/>
<path d="M43.8859 168.626H41.897C41.8353 168.626 41.7891 168.626 41.7582 168.626V195.599C41.7891 196.401 42.082 197.095 42.637 197.681C43.2229 198.236 43.9167 198.513 44.7184 198.513H45.3197V198.976H31.2588V198.513H31.8601C32.9701 198.513 33.8181 198.035 34.404 197.079C34.6507 196.647 34.7894 196.169 34.8202 195.645V169.968C34.7894 169.166 34.4811 168.487 33.8952 167.932C33.3401 167.346 32.6618 167.053 31.8601 167.053H31.2588V166.591H47.1236C50.1146 166.591 52.6431 167.238 54.7091 168.534C55.7575 169.181 56.59 170.091 57.2068 171.263C57.8235 172.404 58.1318 173.916 58.1318 175.797C58.1318 177.648 57.4843 179.437 56.1892 181.164C54.8941 182.891 53.0131 183.878 50.5463 184.125C52.3348 184.711 53.9074 186.068 55.2641 188.196C58.5943 193.532 61.0612 196.709 62.6646 197.727C63.4663 198.22 64.4685 198.483 65.6711 198.513V198.976H61.1383C58.4556 198.976 56.22 198.621 54.4316 197.912C52.674 197.203 51.2864 195.953 50.2688 194.164C49.6829 193.147 48.4032 190.51 46.4298 186.253C45.5664 184.372 44.518 183.338 43.2846 183.153V182.691H44.7184C46.106 182.691 47.324 182.274 48.3724 181.442C49.4516 180.609 50.1763 179.252 50.5463 177.37C50.6697 176.723 50.7313 176.214 50.7313 175.844C50.7313 173.314 50.2225 171.495 49.205 170.384C48.1874 169.243 46.8769 168.657 45.2735 168.626C44.9651 168.626 44.5026 168.626 43.8859 168.626Z" fill="#00CDA8"/>
<path d="M65.7336 198.513C66.5353 198.513 67.2137 198.236 67.7687 197.681C68.3546 197.095 68.6629 196.401 68.6938 195.599V169.922C68.6629 169.12 68.3546 168.441 67.7687 167.886C67.2137 167.331 66.5353 167.053 65.7336 167.053H65.1323V166.591H79.1932L79.147 167.053H78.5919C77.7902 167.053 77.0964 167.331 76.5106 167.886C75.9247 168.441 75.6318 169.12 75.6318 169.922V195.599C75.6318 196.401 75.9247 197.095 76.5106 197.681C77.0964 198.236 77.7902 198.513 78.5919 198.513H79.147L79.1932 198.976H65.1323V198.513H65.7336Z" fill="#00CDA8"/>
<path d="M113.779 199.578C107.827 199.578 103.156 198.082 99.7639 195.09C96.3721 192.098 94.6761 187.996 94.6761 182.783C94.6761 177.571 96.3566 173.469 99.7177 170.477C103.079 167.454 107.689 165.943 113.547 165.943C118.019 165.943 121.858 166.776 125.064 168.441L125.157 176.399H124.787C123.214 170.724 119.622 167.886 114.01 167.886C110.371 167.886 107.488 169.212 105.361 171.865C103.264 174.486 102.215 178.08 102.215 182.645C102.215 187.209 103.218 190.833 105.222 193.517C107.257 196.2 110.001 197.588 113.455 197.681C117.032 197.681 119.761 196.786 121.642 194.997C123.553 193.147 124.879 189.97 125.619 185.467H125.989L126.452 193.424C123.954 197.557 119.73 199.608 113.779 199.578Z" fill="#00CDA8"/>
<path d="M131.093 198.513C131.895 198.513 132.573 198.236 133.128 197.681C133.714 197.095 134.023 196.401 134.053 195.599V169.968C134.023 169.166 133.714 168.487 133.128 167.932C132.573 167.346 131.895 167.053 131.093 167.053H130.492V166.591H144.553L144.507 167.053H143.952C143.15 167.053 142.456 167.346 141.87 167.932C141.284 168.487 140.991 169.166 140.991 169.968V196.987H147.051C149.301 196.987 151.182 196.339 152.693 195.044C154.235 193.748 155.376 191.913 156.116 189.538H156.579L154.451 198.976H130.492V198.513H131.093Z" fill="#00CDA8"/>
<path d="M193.32 167.053H192.534C191.886 167.053 191.331 167.269 190.868 167.701C190.406 168.102 190.159 168.611 190.128 169.228V187.271C190.128 191.065 188.941 194.072 186.567 196.293C184.193 198.513 180.939 199.624 176.808 199.624C171.936 199.624 168.204 198.544 165.614 196.385C163.024 194.195 161.729 191.173 161.729 187.317V169.366C161.698 168.441 161.282 167.763 160.48 167.331C160.11 167.146 159.709 167.053 159.278 167.053H158.538V166.591H171.858V167.053H171.118C170.44 167.053 169.87 167.269 169.407 167.701C168.944 168.102 168.698 168.626 168.667 169.274V186.947C168.667 190.217 169.469 192.807 171.072 194.72C172.676 196.632 174.88 197.588 177.686 197.588C180.492 197.588 182.712 196.694 184.347 194.905C185.981 193.085 186.814 190.633 186.844 187.549V169.274C186.783 168.379 186.367 167.732 185.596 167.331C185.226 167.146 184.825 167.053 184.393 167.053H183.653V166.591H193.32V167.053Z" fill="#00CDA8"/>
<path d="M210.693 198.976H196.077V198.513H196.679C197.789 198.513 198.637 198.035 199.223 197.079C199.469 196.647 199.608 196.169 199.639 195.645V169.922C199.608 169.12 199.3 168.441 198.714 167.886C198.159 167.331 197.48 167.053 196.679 167.053H196.077V166.591H209.491C213.068 166.591 215.905 167.238 218.001 168.534C220.129 169.829 221.208 171.818 221.239 174.502C221.208 175.859 220.915 177.046 220.36 178.064C219.343 179.977 217.739 181.071 215.55 181.349C217.924 181.565 219.882 182.459 221.424 184.032C222.966 185.575 223.737 187.549 223.737 189.954C223.737 192.854 222.565 195.09 220.221 196.663C217.909 198.205 214.733 198.976 210.693 198.976ZM213.839 175.103C213.808 170.754 211.834 168.58 207.918 168.58H206.577V196.848H208.704C208.735 196.848 208.766 196.848 208.797 196.848C210.925 196.848 212.621 196.231 213.885 194.997C215.149 193.764 215.781 191.882 215.781 189.353C215.781 186.824 215.072 184.942 213.654 183.709C212.235 182.475 210.4 181.858 208.149 181.858V181.442C209.753 181.442 211.094 180.933 212.173 179.915C213.253 178.866 213.808 177.262 213.839 175.103Z" fill="#00CDA8"/>
</svg>
