<svg width="129" height="128" viewBox="0 0 129 128" fill="none" xmlns="http://www.w3.org/2000/svg">
<path fill-rule="evenodd" clip-rule="evenodd" d="M12.4047 67.5967L23.5904 78.7782C24.7197 79.907 26.0653 80.6882 27.4944 81.122L27.2913 81.325C21.991 86.6234 19.2573 93.4898 19.1164 100.323C16.6982 99.3631 14.4415 97.9124 12.4966 95.9681C4.81459 88.2891 4.8344 75.75 12.4047 67.5967ZM7.99897 63.1321C-1.58929 52.4359 -1.50087 36.2558 8.45592 26.3028C11.8735 22.8865 16.0251 20.6324 20.4368 19.5327C21.5368 15.1227 23.7918 10.9727 27.2094 7.55642C37.5263 -2.75656 54.5315 -2.47846 65.1916 8.17758L65.2178 8.20378C75.9042 -1.9454 92.5248 -2.04905 102.673 8.09574C106.091 11.5121 108.346 15.662 109.446 20.0721C113.858 21.1717 118.009 23.4258 121.427 26.8421C131.567 36.9784 131.472 53.5732 121.344 64.2566C130.933 74.9527 130.844 91.1328 120.887 101.086C117.47 104.502 113.318 106.756 108.907 107.856C107.807 112.266 105.552 116.416 102.134 119.832C91.817 130.145 74.8118 129.867 64.1517 119.211L64.1255 119.185C53.4391 129.334 36.8186 129.438 26.6699 119.293C23.2523 115.876 20.9974 111.727 19.8973 107.316C15.4856 106.217 11.3341 103.963 7.91647 100.546C-2.22363 90.4102 -2.12865 73.8154 7.99897 63.1321ZM12.4343 58.6837C5.37701 50.5256 5.53053 38.3837 13.036 30.8811C14.981 28.9369 17.2376 27.4862 19.6558 26.5265C19.7966 33.3533 22.5255 40.2134 27.8163 45.5097C26.0695 45.8641 24.4048 46.7178 23.051 48.0711L12.4343 58.6837ZM16.8507 63.155L27.4957 52.5141C28.7203 51.2899 30.708 51.2922 31.9354 52.5191L43.1148 63.6942L32.4748 74.3302C31.2475 75.5571 29.2597 75.5593 28.0351 74.3352L16.8507 63.155ZM47.5496 68.1273L38.5198 77.1537C41.4068 77.4402 44.1904 78.6703 46.3729 80.852C49.1155 83.5936 50.3549 87.2838 50.107 90.936L60.237 80.8099L47.5496 68.1273ZM51.9843 63.6942L64.6717 51.0117L77.3591 63.6943L64.6717 76.3768L51.9843 63.6942ZM60.2369 46.5787L47.5496 59.2612L38.0432 49.7584C41.2869 49.6844 44.4739 48.4348 46.9113 45.9983C49.3771 43.5334 50.6277 40.3018 50.675 37.0204L60.2369 46.5787ZM69.1064 46.5787L81.7938 59.2613L90.8236 50.2349C87.9366 49.9483 85.153 48.7182 82.9705 46.5365C80.2278 43.7949 78.9885 40.1047 79.2364 36.4525L69.1064 46.5787ZM82.4245 28.5605C82.6144 28.3334 82.8127 28.1109 83.0193 27.8933L83.0169 27.8909L83.1355 27.7723C83.1832 27.7232 83.2314 27.6744 83.28 27.6258C83.3094 27.5964 83.3389 27.5671 83.3686 27.538L83.4447 27.4632C88.745 22.1649 95.614 19.4322 102.45 19.2914C101.49 16.8741 100.038 14.6183 98.0933 12.6741C90.393 4.97662 77.8074 5.01499 69.6525 12.6368L79.7047 22.6852C81.3436 24.3234 82.25 26.417 82.4245 28.5605ZM65.2112 17.0832L75.26 27.1282C76.4847 28.3523 76.4824 30.3393 75.2551 31.5662L64.6717 42.1456L54.6278 32.1055C53.4004 30.8786 53.3982 28.8917 54.6228 27.6675L65.2112 17.0832ZM60.7785 12.6281L60.759 12.6085C52.6284 4.48104 39.6583 4.26894 31.7895 12.1348C29.8445 14.079 28.3932 16.3348 27.4332 18.7521C34.2688 18.8929 41.1378 21.6256 46.4381 26.9239L46.8659 27.3516L46.8625 27.355C47.1142 27.6201 47.3535 27.8926 47.5804 28.1716C47.9111 26.3587 48.7769 24.6251 50.1781 23.2245L60.7785 12.6281ZM32.3447 41.163L32.3389 41.1687L32.2634 41.0932C27.8429 36.6744 25.7631 30.8256 26.05 25.1438C31.734 24.857 37.585 26.9361 42.0055 31.3549L42.081 31.4303L42.0742 31.4371C42.104 31.466 42.1337 31.4951 42.1631 31.5246C44.9396 34.3 45.0121 38.7275 42.325 41.4136C39.6378 44.0998 35.2087 44.0273 32.4321 41.2519C32.4027 41.2224 32.3735 41.1928 32.3447 41.163ZM69.1065 80.8099L81.7938 68.1274L91.3003 77.6302C88.0565 77.7042 84.8695 78.9538 82.432 81.3904C79.9663 83.8552 78.7156 87.0868 78.6683 90.3681L69.1065 80.8099ZM109.688 100.862C109.547 94.0353 106.818 87.1752 101.527 81.8788C103.274 81.5245 104.939 80.6708 106.292 79.3175L116.909 68.7049C123.966 76.863 123.813 89.0049 116.307 96.5075C114.362 98.4517 112.106 99.9025 109.688 100.862ZM101.848 74.8745L112.493 64.2336L101.308 53.0535C100.084 51.8293 98.0959 51.8315 96.8685 53.0584L86.2286 63.6943L97.408 74.8695C98.6353 76.0964 100.623 76.0986 101.848 74.8745ZM116.847 31.4204C124.529 39.0995 124.509 51.6386 116.939 59.7919L105.753 48.6105C104.624 47.4816 103.278 46.7004 101.849 46.2666L102.052 46.0635C107.352 40.7652 110.086 33.8988 110.227 27.0658C112.645 28.0255 114.902 29.4762 116.847 31.4204ZM79.1653 104.164C80.5664 102.763 81.4322 101.03 81.763 99.2171C81.9898 99.4961 82.2291 99.7685 82.4809 100.034L82.4774 100.037L82.9052 100.465C88.2056 105.763 95.0746 108.496 101.91 108.637C100.95 111.054 99.4988 113.31 97.5539 115.254C89.685 123.12 76.715 122.908 68.5844 114.78L68.5648 114.76L79.1653 104.164ZM74.7206 99.721L64.1322 110.305L54.0833 100.26C52.8587 99.0363 52.8609 97.0493 54.0883 95.8224L64.6717 85.243L74.7156 95.283C75.943 96.5099 75.9452 98.4969 74.7206 99.721ZM46.3241 99.4953C46.5307 99.2777 46.7289 99.0552 46.9188 98.8281C47.0933 100.972 47.9998 103.065 49.6386 104.703L59.6908 114.752C51.536 122.374 38.9504 122.412 31.25 114.714C29.305 112.77 27.8538 110.514 26.8938 108.097C33.7293 107.956 40.5983 105.224 45.8987 99.9253L45.9748 99.8505C46.0045 99.8214 46.034 99.7921 46.0634 99.7627C46.112 99.7142 46.1602 99.6653 46.2079 99.6162L46.3265 99.4977L46.3241 99.4953ZM87.8076 31.9754L87.8018 31.9697L87.8773 31.8942C92.2978 27.4754 98.1488 25.3963 103.833 25.6831C104.12 31.365 102.04 37.2138 97.6194 41.6326L97.5439 41.708L97.5371 41.7012L97.4863 41.7532L97.4497 41.7901C94.6731 44.5656 90.244 44.638 87.5568 41.9519C84.8697 39.2658 84.9421 34.8383 87.7187 32.0628C87.7481 32.0334 87.7778 32.0042 87.8076 31.9754ZM41.5358 95.4132L41.5415 95.4189L41.466 95.4944C37.0456 99.9132 31.1945 101.992 25.5106 101.705C25.2236 96.0236 27.3035 90.1748 31.724 85.756L31.7995 85.6805L31.8063 85.6873L31.8555 85.6369L31.8937 85.5984C34.6702 82.8229 39.0994 82.7505 41.7866 85.4366C44.4737 88.1227 44.4012 92.5502 41.6247 95.3257C41.5953 95.3552 41.5656 95.3843 41.5358 95.4132ZM97.0044 86.2199L96.9987 86.2257C96.9698 86.1958 96.9407 86.1662 96.9112 86.1367C94.1347 83.3613 89.7055 83.2888 87.0184 85.975C84.3312 88.6611 84.4037 93.0886 87.1802 95.864C87.2097 95.8935 87.2393 95.9226 87.2692 95.9515L87.2624 95.9583L87.3379 96.0337C91.7583 100.453 97.6094 102.532 103.293 102.245C103.58 96.563 101.5 90.7142 97.0799 86.2954L97.0044 86.2199Z" fill="#00CDA8"/>
</svg>
